<svg xmlns="http://www.w3.org/2000/svg" viewBox="0 0 900 350" width="900" height="350" role="img"><defs><marker id="a" viewBox="0 0 10 10" refX="9" refY="5" markerWidth="7" markerHeight="7" orient="auto"><path d="M0 0L10 5L0 10z" fill="#9ece6a"/></marker></defs><style>text{font-family:monospace;fill:#c0caf5}.obj{fill:#1f2335;stroke:#7aa2f7;stroke-width:3}.arrow{stroke:#9ece6a;stroke-width:4;marker-end:url(#a)}.bad{stroke:#f7768e}.token{fill:#f7768e;animation:p 3s infinite alternate}@keyframes p{to{transform:translateY(95px)}}@media(prefers-reduced-motion:reduce){.token{animation:none;transform:translateY(95px)}}</style><rect width="900" height="350" fill="#1a1b26"/><text x="450" y="28" text-anchor="middle">terminal cone = finite limit; initial cocone = finite colimit</text><g><text x="225" y="60" text-anchor="middle">CONE: legs point into the diagram</text><rect class="obj" x="165" y="75" width="120" height="55" rx="12"/><rect class="obj" x="65" y="225" width="120" height="55" rx="12"/><rect class="obj" x="285" y="225" width="120" height="55" rx="12"/><line class="arrow" x1="190" y1="130" x2="145" y2="225"/><line class="arrow" x1="260" y1="130" x2="325" y2="225"/><line class="arrow" x1="185" y1="252" x2="285" y2="252"/><text x="225" y="108" text-anchor="middle">apex</text><text x="125" y="258" text-anchor="middle">X</text><text x="345" y="258" text-anchor="middle">Y</text><text x="225" y="315" text-anchor="middle">factor counts [1,1,1]</text></g><g transform="translate(450 0)"><text x="225" y="60" text-anchor="middle">COCONE: legs point out of the diagram</text><rect class="obj" x="65" y="75" width="120" height="55" rx="12"/><rect class="obj" x="285" y="75" width="120" height="55" rx="12"/><rect class="obj" x="165" y="225" width="120" height="55" rx="12"/><line class="arrow" x1="185" y1="102" x2="285" y2="102"/><line class="arrow" x1="145" y1="130" x2="190" y2="225"/><line class="arrow" x1="325" y1="130" x2="260" y2="225"/><text x="125" y="108" text-anchor="middle">X</text><text x="345" y="108" text-anchor="middle">Y</text><text x="225" y="258" text-anchor="middle">apex</text><text x="225" y="315" text-anchor="middle">factor counts [1,1,1]</text></g><circle class="token" cx="225" cy="125" r="9"/></svg>